<svg width="2500" height="299" xmlns="http://www.w3.org/2000/svg"><g fill="#FFF" fill-rule="evenodd"><path d="M-421.568-506.334C-183.465-345.603-7.146-234.79 107.389-173.896c393.424 209.169 735.994 345.21 955.072 485.613 314.748 201.716 601.928 430.11 861.541 685.184l-2837.52-265.264 491.95-1237.971z" opacity=".08"/><path d="M-335.472-141.97C-107.586-40.28 59.93 27.988 167.076 62.833c368.047 119.689 681.579 184.412 890.129 271.564 299.62 125.21 579.677 277.453 840.17 456.728L-569.89 993.277-335.472-141.97z" opacity=".2"/><path d="M-827.442-1009.053c347.294 289.2 589.084 498.91 725.368 629.13 359.125 343.144 604.385 640.91 836.208 823.748 363.786 286.915 679.881 462.462 948.288 526.64l-2750.377 648.58 240.513-2628.098z" opacity=".24"/><path d="M-608.601-701.73c219.29 225.438 371.353 388.182 456.189 488.23C71.14 50.14 219.198 274.089 366.318 417.507c230.869 225.058 436.838 369.558 617.91 433.501l-1950.494 248.924L-608.6-701.73z" opacity=".2"/><path d="M2997.67 554.735c-260.316-121.505-451.8-203.37-574.45-245.597-421.302-145.05-780.935-225.826-1019.28-330.23-342.428-149.994-661.801-330.652-958.12-541.972l2844.082-181.888L2997.67 554.735z" opacity=".06"/><path d="M2855.634 208.326c-240.988-64.79-417.12-106.012-528.4-123.666-382.238-60.64-702.035-75.52-921.65-128.974-315.52-76.798-615.944-183.356-901.274-319.674l2405.264-585.628-53.94 1157.942z" opacity=".3"/><path d="M3477.19 987.772c-388.26-231.31-659.88-400.614-814.857-507.911-408.383-282.74-697.204-538.473-954.775-682.795-404.19-226.474-743.856-350.412-1018.997-371.812l2615.055-1070.848 173.573 2633.366z" opacity=".2"/><path d="M3212.967 718.468c-251.857-188.36-427.507-325.311-526.95-410.857-262.041-225.422-443.309-423.452-611.054-542.09-263.233-186.17-489.272-296.67-678.117-331.5l1887.54-550.985-71.42 1835.432z" opacity=".2"/></g></svg>