<svg height="512pt" viewBox="0 0 512 512" width="512pt" xmlns="http://www.w3.org/2000/svg"><path d="m416 512h-320c-53.023438 0-96-42.976562-96-96v-320c0-53.023438 42.976562-96 96-96h320c53.023438 0 96 42.976562 96 96v320c0 53.023438-42.976562 96-96 96zm0 0" fill="#fff9dd"/><path d="m194.671875 341.328125c-17.070313 0-32.273437-10.929687-37.792969-27.214844l-.367187-1.234375c-1.296875-4.320312-1.855469-7.933594-1.855469-11.566406v-72.71875l-25.855469 86.398438c-3.328125 12.703124 4.253907 25.886718 16.976563 29.390624l164.941406 44.175782c2.050781.546875 4.113281.785156 6.128906.785156 10.625 0 20.335938-7.039062 23.039063-17.441406l9.601562-30.558594h-154.816406zm0 0" fill="#ffd200"/><path d="m224 229.328125c11.761719 0 21.328125-9.566406 21.328125-21.328125s-9.566406-21.328125-21.328125-21.328125-21.328125 9.566406-21.328125 21.328125 9.566406 21.328125 21.328125 21.328125zm0 0" fill="#ffe777"/><path d="m357.328125 154.671875h-160c-14.703125 0-26.671875 11.96875-26.671875 26.671875v117.328125c0 14.703125 11.96875 26.671875 26.671875 26.671875h160c14.703125 0 26.671875-11.96875 26.671875-26.671875v-117.328125c0-14.71875-11.96875-26.671875-26.671875-26.671875zm-160 21.328125h160c2.945313 0 5.328125 2.382812 5.328125 5.328125v75.726563l-33.695312-39.3125c-3.570313-4.191407-8.753907-6.429688-14.304688-6.558594-5.519531.03125-10.71875 2.480468-14.257812 6.738281l-39.597657 47.550781-12.898437-12.898437c-7.292969-7.292969-19.167969-7.292969-26.460938 0l-29.441406 29.441406v-100.6875c0-2.945313 2.382812-5.328125 5.328125-5.328125zm0 0" fill="#ffd200"/></svg>